<svg version="1.1" xmlns="http://www.w3.org/2000/svg" >
    <symbol id="arrow" viewBox="0 0 444.815 444.815">
        <path d="M421.976,196.712L236.111,10.848C228.884,3.615,220.219,0,210.131,0c-9.9,0-18.464,3.615-25.697,10.848L163.023,32.26c-7.234,6.853-10.85,15.418-10.85,25.697c0,10.277,3.616,18.842,10.85,25.697l83.653,83.937H45.677c-9.895,0-17.937,3.568-24.123,10.707s-9.279,15.752-9.279,25.837v36.546c0,10.088,3.094,18.698,9.279,25.837s14.228,10.704,24.123,10.704h200.995L163.02,360.88c-7.234,7.228-10.85,15.89-10.85,25.981c0,10.089,3.616,18.75,10.85,25.978l21.411,21.412c7.426,7.043,15.99,10.564,25.697,10.564c9.899,0,18.562-3.521,25.981-10.564l185.864-185.864c7.043-7.043,10.567-15.701,10.567-25.981C432.54,211.939,429.016,203.37,421.976,196.712z"/>
    </symbol>
    <symbol id="target" viewBox="0 0 129 129">
        <path d="m10.7,68.6h9c1.9,21.6 19.2,38.8 40.7,40.7v9c0,2.2 1.8,4.1 4.1,4.1 2.2,0 4.1-1.8 4.1-4.1v-9c21.6-1.9 38.8-19.2 40.7-40.7h9c2.2,0 4.1-1.8 4.1-4.1 0-2.2-1.8-4.1-4.1-4.1h-9c-1.9-21.6-19.2-38.8-40.7-40.7v-9c0-2.2-1.8-4.1-4.1-4.1-2.2,0-4.1,1.8-4.1,4.1v9c-21.6,1.9-38.8,19.2-40.7,40.7h-9c-2.3,0-4.1,1.8-4.1,4.1 3.55271e-15,2.3 1.9,4.1 4.1,4.1zm33.7-8.2h-16.5c1.9-17.1 15.5-30.7 32.5-32.5v16.5c0,2.2 1.8,4.1 4.1,4.1 2.2,0 4.1-1.8 4.1-4.1v-16.5c17.1,1.9 30.7,15.5 32.5,32.5h-16.5c-2.2,0-4.1,1.8-4.1,4.1 0,2.2 1.8,4.1 4.1,4.1h16.5c-1.9,17.1-15.5,30.7-32.5,32.5v-16.5c0-2.2-1.8-4.1-4.1-4.1-2.2,0-4.1,1.8-4.1,4.1v16.5c-17.1-1.9-30.7-15.5-32.5-32.5h16.5c2.2,0 4.1-1.8 4.1-4.1 0-2.2-1.9-4.1-4.1-4.1z"/>
    </symbol>
    <symbol id="arrow-point" viewBox="0 0 451.846 451.847">
        <path d="M345.441,248.292L151.154,442.573c-12.359,12.365-32.397,12.365-44.75,0c-12.354-12.354-12.354-32.391,0-44.744L278.318,225.92L106.409,54.017c-12.354-12.359-12.354-32.394,0-44.748c12.354-12.359,32.391-12.359,44.75,0l194.287,194.284c6.177,6.18,9.262,14.271,9.262,22.366C354.708,234.018,351.617,242.115,345.441,248.292z"/>
    </symbol>
    <symbol id="search" viewBox="0 0 56.966 56.966">
    <path d="M55.146,51.887L41.588,37.786c3.486-4.144,5.396-9.358,5.396-14.786c0-12.682-10.318-23-23-23s-23,10.318-23,23s10.318,23,23,23c4.761,0,9.298-1.436,13.177-4.162l13.661,14.208c0.571,0.593,1.339,0.92,2.162,0.92c0.779,0,1.518-0.297,2.079-0.837C56.255,54.982,56.293,53.08,55.146,51.887z M23.984,6c9.374,0,17,7.626,17,17s-7.626,17-17,17s-17-7.626-17-17S14.61,6,23.984,6z"/>
    </symbol>
    <symbol id="info" viewBox="0 0 438.533 438.533">
        <path d="M409.133,109.203c-19.608-33.592-46.205-60.189-79.798-79.796C295.736,9.801,259.058,0,219.273,0c-39.781,0-76.47,9.801-110.063,29.407c-33.595,19.604-60.192,46.201-79.8,79.796C9.801,142.8,0,179.489,0,219.267c0,39.78,9.804,76.463,29.407,110.062c19.607,33.592,46.204,60.189,79.799,79.798c33.597,19.605,70.283,29.407,110.063,29.407s76.47-9.802,110.065-29.407c33.593-19.602,60.189-46.206,79.795-79.798c19.603-33.596,29.403-70.284,29.403-110.062C438.533,179.485,428.732,142.795,409.133,109.203z M182.727,54.813c0-2.666,0.855-4.853,2.57-6.565c1.712-1.711,3.903-2.57,6.567-2.57h54.82c2.662,0,4.853,0.859,6.561,2.57c1.711,1.712,2.573,3.899,2.573,6.565v45.682c0,2.664-0.862,4.854-2.573,6.564c-1.708,1.712-3.898,2.568-6.561,2.568h-54.82c-2.664,0-4.854-0.856-6.567-2.568c-1.715-1.709-2.57-3.9-2.57-6.564V54.813z M292.359,356.309c0,2.662-0.863,4.853-2.57,6.561c-1.704,1.714-3.895,2.57-6.563,2.57H155.317c-2.667,0-4.854-0.856-6.567-2.57c-1.712-1.708-2.568-3.898-2.568-6.564v-45.682c0-2.67,0.856-4.853,2.568-6.567c1.713-1.708,3.903-2.57,6.567-2.57h27.41v-91.358h-27.41c-2.667,0-4.853-0.855-6.567-2.568c-1.712-1.711-2.568-3.901-2.568-6.567v-45.679c0-2.666,0.856-4.853,2.568-6.567c1.715-1.713,3.905-2.568,6.567-2.568h91.367c2.662,0,4.853,0.855,6.561,2.568c1.711,1.714,2.573,3.901,2.573,6.567v146.179h27.401c2.669,0,4.859,0.855,6.57,2.566c1.704,1.712,2.566,3.901,2.566,6.567v45.683H292.359z"/>
    </symbol>
    <symbol id="checkbox" viewBox="0 0 987.331 987.332">
        <path d="M120,955.166h683.1c66.2,0,120-53.801,120-120v-467.1l-120,120v347.1H120v-683h547.3l96.3-96.3c9.101-9.1,19.101-17,29.801-23.7H120c-66.2,0-120,53.8-120,120v683.1C0,901.365,53.8,955.166,120,955.166z"/>
        <path d="M958.2,99.465c-19.4-20.1-44.8-30.8-70.5-32.3c-2.101-0.1-4.101-0.2-6.2-0.2c-27.3,0-54.6,10.4-75.5,31.3l-334,334c-11.3-12.101-81.1-82.4-81.1-82.4c-20.801-20.8-48.2-31.3-75.5-31.3c-27.3,0-54.601,10.4-75.5,31.3c-41.7,41.7-41.7,109.3,0,151l81.8,81.801l75.5,75.5c20,20,47.2,31.301,75.5,31.301s55.5-11.201,75.5-31.301l406.2-406.2C996,210.266,999.2,141.766,958.2,99.465z"/>
    </symbol>
    <symbol id="lock" viewBox="0 0 401.998 401.998">
        <path d="M357.45,190.721c-5.331-5.33-11.8-7.993-19.417-7.993h-9.131v-54.821c0-35.022-12.559-65.093-37.685-90.218C266.093,12.563,236.025,0,200.998,0c-35.026,0-65.1,12.563-90.222,37.688C85.65,62.814,73.091,92.884,73.091,127.907v54.821h-9.135c-7.611,0-14.084,2.663-19.414,7.993c-5.33,5.326-7.994,11.799-7.994,19.417V374.59c0,7.611,2.665,14.086,7.994,19.417c5.33,5.325,11.803,7.991,19.414,7.991H338.04c7.617,0,14.085-2.663,19.417-7.991c5.325-5.331,7.994-11.806,7.994-19.417V210.135C365.455,202.523,362.782,196.051,357.45,190.721z M274.087,182.728H127.909v-54.821c0-20.175,7.139-37.402,21.414-51.675c14.277-14.275,31.501-21.411,51.678-21.411c20.179,0,37.399,7.135,51.677,21.411c14.271,14.272,21.409,31.5,21.409,51.675V182.728z"/>
    </symbol>
    <symbol id="clock" viewBox="0 0 97.16 97.16">
        <path d="M48.58,0C21.793,0,0,21.793,0,48.58s21.793,48.58,48.58,48.58s48.58-21.793,48.58-48.58S75.367,0,48.58,0z M48.58,86.823c-21.087,0-38.244-17.155-38.244-38.243S27.493,10.337,48.58,10.337S86.824,27.492,86.824,48.58S69.667,86.823,48.58,86.823z"/>
        <path d="M73.898,47.08H52.066V20.83c0-2.209-1.791-4-4-4c-2.209,0-4,1.791-4,4v30.25c0,2.209,1.791,4,4,4h25.832c2.209,0,4-1.791,4-4S76.107,47.08,73.898,47.08z"/>
    </symbol>
    <symbol id="list" viewBox="0 0 509.054 509.054">
        <path d="M75.377,0H45.111L6.284,36.258l20.268,21.7c7.994-7.041,12.753-12.185,14.277-15.417H41.4v3.427c0,7.613-0.05,19.126-0.144,34.545c-0.096,15.417-0.144,27.027-0.144,34.831H10.562v28.266h95.646v-28.266H75.377V0z"/>
        <path d="M505.489,73.232c-1.816-1.809-3.952-2.712-6.43-2.712H151.886c-2.474,0-4.611,0.903-6.423,2.712c-1.805,1.809-2.708,3.949-2.708,6.424v54.817c0,2.475,0.9,4.615,2.708,6.424c1.812,1.807,3.949,2.712,6.423,2.712h347.176c2.478,0,4.617-0.905,6.427-2.712c1.808-1.809,2.707-3.949,2.707-6.424V79.656C508.2,77.182,507.297,75.041,505.489,73.232z"/>
        <path d="M73.664,420.834l27.123-32.833v-25.125H5.712v43.396h30.262V391.14c3.046,0,7.661-0.086,13.85-0.277c6.182-0.195,10.8-0.288,13.846-0.288v0.288c-3.621,3.426-7.139,7.087-10.566,10.992c-3.427,3.904-7.471,9.041-12.135,15.409c-4.661,6.379-7.751,10.521-9.275,12.423l7.421,15.988c19.985-1.526,29.979,3.802,29.979,15.988c0,5.328-2.046,9.373-6.139,12.128c-4.089,2.766-8.897,4.145-14.417,4.145c-10.848,0-20.937-4.281-30.262-12.85L1.998,490.211c12.562,12.562,28.931,18.843,49.109,18.843c15.416,0,28.31-4.374,38.688-13.131c10.373-8.758,15.559-20.749,15.559-35.974c0-9.709-2.859-18.083-8.562-25.129C91.08,427.784,83.375,423.116,73.664,420.834z"/>
        <path d="M75.942,298.066h-36.26c0.193-4.76,3.571-9.756,10.138-14.985c6.567-5.232,13.747-10.037,21.555-14.417c7.801-4.381,14.939-10.514,21.412-18.412c6.472-7.9,9.707-16.608,9.707-26.125c0-13.515-4.757-24.222-14.273-32.121c-9.514-7.898-21.223-11.849-35.117-11.849c-11.042,0-21.083,2.712-30.124,8.138c-9.04,5.424-15.843,12.991-20.412,22.701l24.27,16.844c6.663-11.042,14.371-16.56,23.125-16.56c4.762,0,8.52,1.285,11.281,3.854c2.757,2.574,4.141,6.235,4.141,10.994c0,4.377-2.238,8.66-6.711,12.847c-4.475,4.187-9.851,8.326-16.134,12.419c-6.28,4.093-12.563,8.615-18.842,13.563c-6.28,4.949-11.661,11.417-16.134,19.411c-4.471,7.994-6.708,16.847-6.708,26.553c0,3.425,0.571,8.565,1.711,15.417H105.92v-45.402v-0.004H75.942V298.066z"/>
        <path d="M499.06,362.876H151.886c-2.663,0-4.853,0.858-6.563,2.569c-1.713,1.712-2.568,3.901-2.568,6.564v54.819c0,2.475,0.9,4.616,2.708,6.423c1.812,1.808,3.949,2.711,6.423,2.711h347.176c2.478,0,4.617-0.896,6.427-2.711c1.808-1.807,2.707-3.948,2.707-6.423V372.01c0-2.471-0.906-4.613-2.707-6.42C503.676,363.782,501.537,362.876,499.06,362.876z"/>
        <path d="M499.06,216.698H151.886c-2.663,0-4.853,0.855-6.563,2.568c-1.713,1.713-2.568,3.903-2.568,6.567v54.818c0,2.475,0.9,4.613,2.708,6.424c1.812,1.81,3.949,2.714,6.423,2.714h347.176c2.478,0,4.617-0.904,6.427-2.714c1.808-1.811,2.707-3.949,2.707-6.424v-54.818c0-2.474-0.906-4.615-2.707-6.423C503.676,217.602,501.537,216.698,499.06,216.698z"
        />
    </symbol>
    <symbol id="calendar" viewBox="0 0 28.808 28.808">
        <path d="M21.473,6.081c1.105,0,2-0.889,2-1.994V1.998c0-1.106-0.895-1.998-2-1.998c-1.104,0-1.996,0.892-1.996,1.998v2.089C19.477,5.192,20.369,6.081,21.473,6.081z"/>
        <path d="M28.572,3.457h-4.021v1.017c0,1.676-1.363,3.043-3.043,3.043c-1.682,0-3.041-1.367-3.041-3.043V3.457H10.35v1.017c0,1.676-1.363,3.043-3.043,3.043S4.266,6.149,4.266,4.473V3.457L0.207,3.406v25.402h2.029h24.34l2.025-0.006L28.572,3.457z M26.576,26.785H2.236V10.557h24.34V26.785z"/>
        <path d="M7.275,6.081c1.105,0,1.998-0.889,1.998-1.994V1.998C9.273,0.892,8.381,0,7.275,0C6.172,0,5.279,0.892,5.279,1.998v2.089C5.279,5.192,6.172,6.081,7.275,6.081z"/>
        <rect x="10.357" y="12.735" width="3.195" height="2.821"/>
        <rect x="15.525" y="12.735" width="3.199" height="2.821"/>
        <rect x="20.318" y="12.735" width="3.195" height="2.821"/>
        <rect x="10.357" y="17.42" width="3.195" height="2.819"/>
        <rect x="15.525" y="17.42" width="3.199" height="2.819"/>
        <rect x="20.318" y="17.42" width="3.195" height="2.819"/>
        <rect x="10.357" y="22.198" width="3.195" height="2.819"/>
        <rect x="5.279" y="17.42" width="3.193" height="2.819"/>
        <rect x="5.279" y="22.198" width="3.193" height="2.819"/>
        <rect x="15.525" y="22.198" width="3.199" height="2.819"/>
        <rect x="20.318" y="22.198" width="3.195" height="2.819"/>
    </symbol>
    <symbol id="star" viewBox="0 0 126.729 126.73">
        <path d="M121.215,44.212l-34.899-3.3c-2.2-0.2-4.101-1.6-5-3.7l-12.5-30.3c-2-5-9.101-5-11.101,0l-12.4,30.3
		c-0.8,2.1-2.8,3.5-5,3.7l-34.9,3.3c-5.2,0.5-7.3,7-3.4,10.5l26.3,23.1c1.7,1.5,2.4,3.7,1.9,5.9l-7.9,32.399
		c-1.2,5.101,4.3,9.3,8.9,6.601l29.1-17.101c1.9-1.1,4.2-1.1,6.1,0l29.101,17.101c4.6,2.699,10.1-1.4,8.899-6.601l-7.8-32.399
		c-0.5-2.2,0.2-4.4,1.9-5.9l26.3-23.1C128.615,51.212,126.415,44.712,121.215,44.212z"/>
    </symbol>
    <symbol id="bell" viewBox="0 0 16 16">
        <path d="M15.2 0l-3.6 3.6c-0.4-0.6-1.2-1.3-2.6-1.5v-1.1c0 0 0.1-1-1-1s-1 1-1 1v1.1c-3 0.5-3 2.9-3 2.9v5.2c0 0.5-0.3 1-0.7 1.2l-1.3 0.6v1.3l-2 2v0.7h0.7l15.3-15.4v-0.6h-0.8zM5 10.3c0-0.1 0-0.1 0 0v-5.3c0-0.1 0.1-1.6 2.2-1.9l0.8-0.2 0.8 0.1c1.2 0.2 1.8 0.8 2 1.3l-5.8 6z"></path>
        <path d="M12 10.2v-4.6l-1 1v3.5c0 0.9 0.5 1.7 1.3 2.1l0.7 0.4v0.4h-8.3l-1 1h2.4c0 0-0.1 2 2 2s2-2 2-2h3.9v-2l-1.3-0.6c-0.4-0.3-0.7-0.7-0.7-1.2z"></path>
    </symbol>
    <symbol id="hand" viewBox="0 0 511.623 511.623">
        <path d="M455.387,182.438c-11.231-31.212-16.844-52.435-16.844-63.666V36.547c0-10.09-3.58-18.704-10.712-25.84C420.692,3.571,412.075,0,401.987,0H219.271c-10.088,0-18.702,3.571-25.841,10.707c-7.133,7.14-10.705,15.754-10.705,25.84v82.225c0,1.902-0.428,3.945-1.287,6.136s-2.19,4.43-3.999,6.711c-1.807,2.281-3.521,4.427-5.137,6.423s-3.756,4.283-6.423,6.851c-2.663,2.568-4.709,4.518-6.136,5.852c-1.425,1.334-3.472,3.14-6.139,5.424c-2.664,2.284-4.283,3.62-4.854,3.999c-14.082,12.37-26.362,21.888-36.829,28.549c-3.996,2.474-9.897,5.614-17.7,9.419c-7.804,3.809-14.655,7.331-20.557,10.566c-5.901,3.237-11.897,7.093-17.987,11.563c-6.091,4.471-10.8,9.707-14.134,15.703c-3.333,5.996-4.996,12.609-4.996,19.842c0,23.791,6.423,43.444,19.273,58.957c12.847,15.513,30.784,23.274,53.815,23.274c14.087,0,26.268-2.098,36.545-6.283v106.778c0,19.794,7.233,36.925,21.7,51.395c14.465,14.462,31.499,21.692,51.106,21.692c19.984,0,37.211-7.183,51.669-21.549c14.476-14.377,21.703-31.553,21.703-51.538v-48.252c12.368-1.331,23.688-4.856,33.969-10.568c4.004,0.575,8.097,0.856,12.278,0.856c19.411,0,36.351-5.805,50.819-17.416l1.431,0.281c26.648,0.194,47.342-8.087,62.092-24.839c14.756-16.744,22.124-38.633,22.124-65.661C475.077,248.767,468.518,218.594,455.387,182.438z M370.873,41.961c3.62-3.617,7.898-5.426,12.847-5.426s9.232,1.809,12.854,5.426c3.613,3.619,5.421,7.902,5.421,12.85c0,4.949-1.811,9.23-5.421,12.847c-3.621,3.615-7.905,5.424-12.854,5.424s-9.227-1.809-12.847-5.424c-3.614-3.617-5.421-7.895-5.421-12.847C365.452,49.859,367.259,45.576,370.873,41.961z M426.842,312.765c-7.812,9.233-19.8,13.847-35.977,13.847c-6.092,0-11.423-0.377-15.988-1.144c-3.046,5.716-8.042,10.232-14.989,13.565c-6.947,3.326-13.942,4.997-20.984,4.997c-7.036,0-13.607-1.712-19.698-5.141c-9.514,10.089-20.838,15.133-33.972,15.133c-10.852,0-20.66-3.34-29.412-9.999v94.499c0,9.897-3.615,18.466-10.85,25.7c-7.233,7.231-15.8,10.855-25.697,10.855c-9.708,0-18.225-3.724-25.553-11.143c-7.33-7.419-10.992-15.886-10.992-25.413V274.077c-3.809,0-8.423,1.428-13.849,4.281c-5.424,2.857-10.66,5.996-15.703,9.422c-5.042,3.425-11.516,6.566-19.414,9.421c-7.902,2.854-15.94,4.277-24.126,4.277c-12.753,0-22.029-4.229-27.836-12.703c-5.806-8.466-8.708-19.465-8.708-32.972c0-1.521,1.094-3.287,3.284-5.28c2.19-1.995,5.092-4.042,8.708-6.136c3.617-2.093,6.995-3.995,10.134-5.71c3.14-1.709,6.567-3.472,10.279-5.28c3.711-1.809,5.852-2.806,6.423-2.996c8.757-4.57,15.23-8.182,19.417-10.85c12.181-7.611,25.981-18.271,41.396-31.977c0.953-0.759,2.284-1.903,3.999-3.427c6.28-5.518,11.417-10.183,15.415-13.988c3.999-3.805,8.376-8.563,13.135-14.277c4.758-5.711,8.276-11.654,10.562-17.843c2.284-6.189,3.425-12.612,3.425-19.273v-9.136h182.723v9.136c0,13.706,3.046,29.597,9.137,47.679c6.092,18.083,12.183,36.545,18.274,55.389c6.092,18.843,9.138,36.26,9.138,52.248C438.546,290.638,434.635,303.532,426.842,312.765z"/>
    </symbol>

</svg>